<?xml version="1.0" encoding="utf-8" standalone="no"?>
<!DOCTYPE svg PUBLIC "-//W3C//DTD SVG 1.1//EN"
  "http://www.w3.org/Graphics/SVG/1.1/DTD/svg11.dtd">
<!-- Created with matplotlib (https://matplotlib.org/) -->
<svg height="216pt" version="1.1" viewBox="0 0 216 216" width="216pt" xmlns="http://www.w3.org/2000/svg" xmlns:xlink="http://www.w3.org/1999/xlink">
 <metadata>
  <rdf:RDF xmlns:cc="http://creativecommons.org/ns#" xmlns:dc="http://purl.org/dc/elements/1.1/" xmlns:rdf="http://www.w3.org/1999/02/22-rdf-syntax-ns#">
   <cc:Work>
    <dc:type rdf:resource="http://purl.org/dc/dcmitype/StillImage"/>
    <dc:date>2021-11-02T12:31:51.990807</dc:date>
    <dc:format>image/svg+xml</dc:format>
    <dc:creator>
     <cc:Agent>
      <dc:title>Matplotlib v3.3.2, https://matplotlib.org/</dc:title>
     </cc:Agent>
    </dc:creator>
   </cc:Work>
  </rdf:RDF>
 </metadata>
 <defs>
  <style type="text/css">*{stroke-linecap:butt;stroke-linejoin:round;}</style>
 </defs>
 <g id="figure_1">
  <g id="patch_1">
   <path d="M 0 216 
L 216 216 
L 216 0 
L 0 0 
z
" style="fill:#ffffff;"/>
  </g>
  <g id="axes_1">
   <g id="patch_2">
    <path d="M 27 192.24 
L 194.4 192.24 
L 194.4 25.92 
L 27 25.92 
z
" style="fill:#ffffff;"/>
   </g>
   <g id="PathCollection_1">
    <defs>
     <path d="M 0 3 
C 0.795609 3 1.55874 2.683901 2.12132 2.12132 
C 2.683901 1.55874 3 0.795609 3 0 
C 3 -0.795609 2.683901 -1.55874 2.12132 -2.12132 
C 1.55874 -2.683901 0.795609 -3 0 -3 
C -0.795609 -3 -1.55874 -2.683901 -2.12132 -2.12132 
C -2.683901 -1.55874 -3 -0.795609 -3 0 
C -3 0.795609 -2.683901 1.55874 -2.12132 2.12132 
C -1.55874 2.683901 -0.795609 3 0 3 
z
" id="mf2f18ea756" style="stroke:#808080;stroke-opacity:0.8;"/>
    </defs>
    <g clip-path="url(#p53a87a915d)">
     <use style="fill:#808080;fill-opacity:0.8;stroke:#808080;stroke-opacity:0.8;" x="126.579502" xlink:href="#mf2f18ea756" y="94.691399"/>
     <use style="fill:#808080;fill-opacity:0.8;stroke:#808080;stroke-opacity:0.8;" x="27" xlink:href="#mf2f18ea756" y="147.692409"/>
     <use style="fill:#808080;fill-opacity:0.8;stroke:#808080;stroke-opacity:0.8;" x="179.089121" xlink:href="#mf2f18ea756" y="34.638362"/>
     <use style="fill:#808080;fill-opacity:0.8;stroke:#808080;stroke-opacity:0.8;" x="118.955124" xlink:href="#mf2f18ea756" y="94.596968"/>
     <use style="fill:#808080;fill-opacity:0.8;stroke:#808080;stroke-opacity:0.8;" x="136.483842" xlink:href="#mf2f18ea756" y="79.425291"/>
     <use style="fill:#808080;fill-opacity:0.8;stroke:#808080;stroke-opacity:0.8;" x="179.432932" xlink:href="#mf2f18ea756" y="33.718646"/>
     <use style="fill:#808080;fill-opacity:0.8;stroke:#808080;stroke-opacity:0.8;" x="133.07657" xlink:href="#mf2f18ea756" y="76.085914"/>
     <use style="fill:#808080;fill-opacity:0.8;stroke:#808080;stroke-opacity:0.8;" x="128.571027" xlink:href="#mf2f18ea756" y="76.137195"/>
     <use style="fill:#808080;fill-opacity:0.8;stroke:#808080;stroke-opacity:0.8;" x="194.4" xlink:href="#mf2f18ea756" y="36.690384"/>
     <use style="fill:#808080;fill-opacity:0.8;stroke:#808080;stroke-opacity:0.8;" x="104.568134" xlink:href="#mf2f18ea756" y="98.088249"/>
     <use style="fill:#808080;fill-opacity:0.8;stroke:#808080;stroke-opacity:0.8;" x="27.108619" xlink:href="#mf2f18ea756" y="159.487079"/>
     <use style="fill:#808080;fill-opacity:0.8;stroke:#808080;stroke-opacity:0.8;" x="178.471673" xlink:href="#mf2f18ea756" y="36.71889"/>
     <use style="fill:#808080;fill-opacity:0.8;stroke:#808080;stroke-opacity:0.8;" x="105.258923" xlink:href="#mf2f18ea756" y="99.041691"/>
     <use style="fill:#808080;fill-opacity:0.8;stroke:#808080;stroke-opacity:0.8;" x="102.473748" xlink:href="#mf2f18ea756" y="109.153448"/>
     <use style="fill:#808080;fill-opacity:0.8;stroke:#808080;stroke-opacity:0.8;" x="182.03394" xlink:href="#mf2f18ea756" y="35.495662"/>
     <use style="fill:#808080;fill-opacity:0.8;stroke:#808080;stroke-opacity:0.8;" x="122.390042" xlink:href="#mf2f18ea756" y="76.575572"/>
     <use style="fill:#808080;fill-opacity:0.8;stroke:#808080;stroke-opacity:0.8;" x="111.628223" xlink:href="#mf2f18ea756" y="105.506183"/>
     <use style="fill:#808080;fill-opacity:0.8;stroke:#808080;stroke-opacity:0.8;" x="187.339925" xlink:href="#mf2f18ea756" y="33.917206"/>
     <use style="fill:#808080;fill-opacity:0.8;stroke:#808080;stroke-opacity:0.8;" x="58.852626" xlink:href="#mf2f18ea756" y="151.787669"/>
     <use style="fill:#808080;fill-opacity:0.8;stroke:#808080;stroke-opacity:0.8;" x="127.495092" xlink:href="#mf2f18ea756" y="128.490686"/>
     <use style="fill:#808080;fill-opacity:0.8;stroke:#808080;stroke-opacity:0.8;" x="92.995947" xlink:href="#mf2f18ea756" y="119.841459"/>
     <use style="fill:#808080;fill-opacity:0.8;stroke:#808080;stroke-opacity:0.8;" x="110.137204" xlink:href="#mf2f18ea756" y="95.042235"/>
     <use style="fill:#808080;fill-opacity:0.8;stroke:#808080;stroke-opacity:0.8;" x="144.908535" xlink:href="#mf2f18ea756" y="125.877356"/>
     <use style="fill:#808080;fill-opacity:0.8;stroke:#808080;stroke-opacity:0.8;" x="183.459818" xlink:href="#mf2f18ea756" y="69.803893"/>
     <use style="fill:#808080;fill-opacity:0.8;stroke:#808080;stroke-opacity:0.8;" x="126.154629" xlink:href="#mf2f18ea756" y="77.399452"/>
     <use style="fill:#808080;fill-opacity:0.8;stroke:#808080;stroke-opacity:0.8;" x="151.047473" xlink:href="#mf2f18ea756" y="89.43791"/>
     <use style="fill:#808080;fill-opacity:0.8;stroke:#808080;stroke-opacity:0.8;" x="158.449226" xlink:href="#mf2f18ea756" y="81.849993"/>
     <use style="fill:#808080;fill-opacity:0.8;stroke:#808080;stroke-opacity:0.8;" x="69.192346" xlink:href="#mf2f18ea756" y="137.954068"/>
     <use style="fill:#808080;fill-opacity:0.8;stroke:#808080;stroke-opacity:0.8;" x="114.56605" xlink:href="#mf2f18ea756" y="134.169294"/>
     <use style="fill:#808080;fill-opacity:0.8;stroke:#808080;stroke-opacity:0.8;" x="99.54117" xlink:href="#mf2f18ea756" y="139.269624"/>
     <use style="fill:#808080;fill-opacity:0.8;stroke:#808080;stroke-opacity:0.8;" x="122.434427" xlink:href="#mf2f18ea756" y="81.806835"/>
     <use style="fill:#808080;fill-opacity:0.8;stroke:#808080;stroke-opacity:0.8;" x="146.752586" xlink:href="#mf2f18ea756" y="111.146845"/>
     <use style="fill:#808080;fill-opacity:0.8;stroke:#808080;stroke-opacity:0.8;" x="160.106387" xlink:href="#mf2f18ea756" y="82.307168"/>
     <use style="fill:#808080;fill-opacity:0.8;stroke:#808080;stroke-opacity:0.8;" x="137.735699" xlink:href="#mf2f18ea756" y="83.91088"/>
     <use style="fill:#808080;fill-opacity:0.8;stroke:#808080;stroke-opacity:0.8;" x="126.746944" xlink:href="#mf2f18ea756" y="118.191101"/>
     <use style="fill:#808080;fill-opacity:0.8;stroke:#808080;stroke-opacity:0.8;" x="158.345053" xlink:href="#mf2f18ea756" y="78.355807"/>
    </g>
   </g>
   <g id="PolyCollection_1">
    <path clip-path="url(#p53a87a915d)" d="M 27 156.91828 
L 27 184.68 
L 28.690909 183.19774 
L 30.381818 181.713988 
L 32.072727 180.213358 
L 33.763636 178.701114 
L 35.454545 177.188869 
L 37.145455 175.676624 
L 38.836364 174.163715 
L 40.527273 172.65014 
L 42.218182 171.16118 
L 43.909091 169.664501 
L 45.6 168.129426 
L 47.290909 166.653412 
L 48.981818 165.154993 
L 50.672727 163.6351 
L 52.363636 162.109764 
L 54.054545 160.584429 
L 55.745455 159.059094 
L 57.436364 157.547911 
L 59.127273 156.102515 
L 60.818182 154.656458 
L 62.509091 153.2104 
L 64.2 151.778616 
L 65.890909 150.319145 
L 67.581818 148.864927 
L 69.272727 147.4313 
L 70.963636 145.986914 
L 72.654545 144.541789 
L 74.345455 143.096664 
L 76.036364 141.651137 
L 77.727273 140.206415 
L 79.418182 138.761287 
L 81.109091 137.298048 
L 82.8 135.873397 
L 84.490909 134.491001 
L 86.181818 133.048443 
L 87.872727 131.570917 
L 89.563636 130.276265 
L 91.254545 128.920224 
L 92.945455 127.537113 
L 94.636364 126.177622 
L 96.327273 124.786766 
L 98.018182 123.382025 
L 99.709091 121.976158 
L 101.4 120.557835 
L 103.090909 119.211358 
L 104.781818 117.916195 
L 106.472727 116.444751 
L 108.163636 114.977303 
L 109.854545 113.707652 
L 111.545455 112.404505 
L 113.236364 110.991805 
L 114.927273 109.603891 
L 116.618182 108.285004 
L 118.309091 106.997666 
L 120 105.688187 
L 121.690909 104.412807 
L 123.381818 103.015734 
L 125.072727 101.692172 
L 126.763636 100.577352 
L 128.454545 99.283493 
L 130.145455 98.048589 
L 131.836364 96.745403 
L 133.527273 95.393901 
L 135.218182 94.217026 
L 136.909091 92.968939 
L 138.6 91.858831 
L 140.290909 90.692298 
L 141.981818 89.453982 
L 143.672727 88.255081 
L 145.363636 87.201026 
L 147.054545 86.036359 
L 148.745455 84.970132 
L 150.436364 83.74469 
L 152.127273 82.635224 
L 153.818182 81.539021 
L 155.509091 80.522194 
L 157.2 79.40328 
L 158.890909 78.266526 
L 160.581818 77.139126 
L 162.272727 76.009864 
L 163.963636 74.880387 
L 165.654545 73.778171 
L 167.345455 72.710876 
L 169.036364 71.641794 
L 170.727273 70.589108 
L 172.418182 69.510695 
L 174.109091 68.443826 
L 175.8 67.376956 
L 177.490909 66.310087 
L 179.181818 65.234427 
L 180.872727 64.126897 
L 182.563636 63.070372 
L 184.254545 62.013846 
L 185.945455 60.94199 
L 187.636364 59.819244 
L 189.327273 58.73659 
L 191.018182 57.70053 
L 192.709091 56.64119 
L 194.4 55.627642 
L 194.4 33.48 
L 194.4 33.48 
L 192.709091 34.903601 
L 191.018182 36.334385 
L 189.327273 37.737197 
L 187.636364 39.158189 
L 185.945455 40.619885 
L 184.254545 42.094788 
L 182.563636 43.56319 
L 180.872727 44.98064 
L 179.181818 46.383386 
L 177.490909 47.778677 
L 175.8 49.135556 
L 174.109091 50.492436 
L 172.418182 51.849315 
L 170.727273 53.242166 
L 169.036364 54.776958 
L 167.345455 56.313005 
L 165.654545 57.808193 
L 163.963636 59.142121 
L 162.272727 60.456278 
L 160.581818 61.874406 
L 158.890909 63.344315 
L 157.2 64.577505 
L 155.509091 65.959085 
L 153.818182 67.335934 
L 152.127273 68.820288 
L 150.436364 70.173298 
L 148.745455 71.602397 
L 147.054545 72.980016 
L 145.363636 74.35039 
L 143.672727 75.652249 
L 141.981818 77.055115 
L 140.290909 78.404559 
L 138.6 79.805428 
L 136.909091 81.055635 
L 135.218182 82.417574 
L 133.527273 83.701089 
L 131.836364 84.934765 
L 130.145455 86.231501 
L 128.454545 87.548185 
L 126.763636 88.862151 
L 125.072727 90.152315 
L 123.381818 91.401965 
L 121.690909 92.686239 
L 120 93.913501 
L 118.309091 95.236003 
L 116.618182 96.455971 
L 114.927273 97.748959 
L 113.236364 98.975808 
L 111.545455 100.160445 
L 109.854545 101.318411 
L 108.163636 102.535128 
L 106.472727 103.75134 
L 104.781818 104.969013 
L 103.090909 106.198171 
L 101.4 107.396415 
L 99.709091 108.538361 
L 98.018182 109.73163 
L 96.327273 110.961275 
L 94.636364 112.052245 
L 92.945455 113.161637 
L 91.254545 114.26106 
L 89.563636 115.411331 
L 87.872727 116.606004 
L 86.181818 117.699339 
L 84.490909 118.871887 
L 82.8 120.045785 
L 81.109091 121.220114 
L 79.418182 122.349505 
L 77.727273 123.568642 
L 76.036364 124.736908 
L 74.345455 125.881914 
L 72.654545 126.979682 
L 70.963636 128.154511 
L 69.272727 129.316413 
L 67.581818 130.459945 
L 65.890909 131.602727 
L 64.2 132.749037 
L 62.509091 133.973269 
L 60.818182 135.052021 
L 59.127273 136.174958 
L 57.436364 137.317979 
L 55.745455 138.467194 
L 54.054545 139.562528 
L 52.363636 140.580454 
L 50.672727 141.624126 
L 48.981818 142.71396 
L 47.290909 143.803793 
L 45.6 144.893627 
L 43.909091 145.954408 
L 42.218182 147.041303 
L 40.527273 148.163128 
L 38.836364 149.252962 
L 37.145455 150.342795 
L 35.454545 151.432629 
L 33.763636 152.522865 
L 32.072727 153.643851 
L 30.381818 154.795496 
L 28.690909 155.912261 
L 27 156.91828 
z
" style="fill:#808080;fill-opacity:0.15;"/>
   </g>
   <g id="PathCollection_2">
    <defs>
     <path d="M 0 3.535534 
C 0.937635 3.535534 1.836992 3.163008 2.5 2.5 
C 3.163008 1.836992 3.535534 0.937635 3.535534 -0 
C 3.535534 -0.937635 3.163008 -1.836992 2.5 -2.5 
C 1.836992 -3.163008 0.937635 -3.535534 0 -3.535534 
C -0.937635 -3.535534 -1.836992 -3.163008 -2.5 -2.5 
C -3.163008 -1.836992 -3.535534 -0.937635 -3.535534 0 
C -3.535534 0.937635 -3.163008 1.836992 -2.5 2.5 
C -1.836992 3.163008 -0.937635 3.535534 0 3.535534 
z
" id="C0_0_4043cc2302"/>
    </defs>
    <g clip-path="url(#p53a87a915d)">
     <use style="fill:#1f77b4;" x="126.579502" xlink:href="#C0_0_4043cc2302" y="94.691399"/>
    </g>
    <g clip-path="url(#p53a87a915d)">
     <use style="fill:#ff7f0e;" x="27" xlink:href="#C0_0_4043cc2302" y="147.692409"/>
    </g>
    <g clip-path="url(#p53a87a915d)">
     <use style="fill:#2ca02c;" x="179.089121" xlink:href="#C0_0_4043cc2302" y="34.638362"/>
    </g>
    <g clip-path="url(#p53a87a915d)">
     <use style="fill:#1f77b4;" x="118.955124" xlink:href="#C0_0_4043cc2302" y="94.596968"/>
    </g>
    <g clip-path="url(#p53a87a915d)">
     <use style="fill:#ff7f0e;" x="136.483842" xlink:href="#C0_0_4043cc2302" y="79.425291"/>
    </g>
    <g clip-path="url(#p53a87a915d)">
     <use style="fill:#2ca02c;" x="179.432932" xlink:href="#C0_0_4043cc2302" y="33.718646"/>
    </g>
    <g clip-path="url(#p53a87a915d)">
     <use style="fill:#1f77b4;" x="133.07657" xlink:href="#C0_0_4043cc2302" y="76.085914"/>
    </g>
    <g clip-path="url(#p53a87a915d)">
     <use style="fill:#ff7f0e;" x="128.571027" xlink:href="#C0_0_4043cc2302" y="76.137195"/>
    </g>
    <g clip-path="url(#p53a87a915d)">
     <use style="fill:#2ca02c;" x="194.4" xlink:href="#C0_0_4043cc2302" y="36.690384"/>
    </g>
    <g clip-path="url(#p53a87a915d)">
     <use style="fill:#1f77b4;" x="104.568134" xlink:href="#C0_0_4043cc2302" y="98.088249"/>
    </g>
    <g clip-path="url(#p53a87a915d)">
     <use style="fill:#ff7f0e;" x="27.108619" xlink:href="#C0_0_4043cc2302" y="159.487079"/>
    </g>
    <g clip-path="url(#p53a87a915d)">
     <use style="fill:#2ca02c;" x="178.471673" xlink:href="#C0_0_4043cc2302" y="36.71889"/>
    </g>
    <g clip-path="url(#p53a87a915d)">
     <use style="fill:#1f77b4;" x="105.258923" xlink:href="#C0_0_4043cc2302" y="99.041691"/>
    </g>
    <g clip-path="url(#p53a87a915d)">
     <use style="fill:#ff7f0e;" x="102.473748" xlink:href="#C0_0_4043cc2302" y="109.153448"/>
    </g>
    <g clip-path="url(#p53a87a915d)">
     <use style="fill:#2ca02c;" x="182.03394" xlink:href="#C0_0_4043cc2302" y="35.495662"/>
    </g>
    <g clip-path="url(#p53a87a915d)">
     <use style="fill:#1f77b4;" x="122.390042" xlink:href="#C0_0_4043cc2302" y="76.575572"/>
    </g>
    <g clip-path="url(#p53a87a915d)">
     <use style="fill:#ff7f0e;" x="111.628223" xlink:href="#C0_0_4043cc2302" y="105.506183"/>
    </g>
    <g clip-path="url(#p53a87a915d)">
     <use style="fill:#2ca02c;" x="187.339925" xlink:href="#C0_0_4043cc2302" y="33.917206"/>
    </g>
    <g clip-path="url(#p53a87a915d)">
     <use style="fill:#d62728;" x="58.852626" xlink:href="#C0_0_4043cc2302" y="151.787669"/>
    </g>
    <g clip-path="url(#p53a87a915d)">
     <use style="fill:#9467bd;" x="127.495092" xlink:href="#C0_0_4043cc2302" y="128.490686"/>
    </g>
    <g clip-path="url(#p53a87a915d)">
     <use style="fill:#8c564b;" x="92.995947" xlink:href="#C0_0_4043cc2302" y="119.841459"/>
    </g>
    <g clip-path="url(#p53a87a915d)">
     <use style="fill:#d62728;" x="110.137204" xlink:href="#C0_0_4043cc2302" y="95.042235"/>
    </g>
    <g clip-path="url(#p53a87a915d)">
     <use style="fill:#9467bd;" x="144.908535" xlink:href="#C0_0_4043cc2302" y="125.877356"/>
    </g>
    <g clip-path="url(#p53a87a915d)">
     <use style="fill:#8c564b;" x="183.459818" xlink:href="#C0_0_4043cc2302" y="69.803893"/>
    </g>
    <g clip-path="url(#p53a87a915d)">
     <use style="fill:#d62728;" x="126.154629" xlink:href="#C0_0_4043cc2302" y="77.399452"/>
    </g>
    <g clip-path="url(#p53a87a915d)">
     <use style="fill:#9467bd;" x="151.047473" xlink:href="#C0_0_4043cc2302" y="89.43791"/>
    </g>
    <g clip-path="url(#p53a87a915d)">
     <use style="fill:#8c564b;" x="158.449226" xlink:href="#C0_0_4043cc2302" y="81.849993"/>
    </g>
    <g clip-path="url(#p53a87a915d)">
     <use style="fill:#d62728;" x="69.192346" xlink:href="#C0_0_4043cc2302" y="137.954068"/>
    </g>
    <g clip-path="url(#p53a87a915d)">
     <use style="fill:#9467bd;" x="114.56605" xlink:href="#C0_0_4043cc2302" y="134.169294"/>
    </g>
    <g clip-path="url(#p53a87a915d)">
     <use style="fill:#8c564b;" x="99.54117" xlink:href="#C0_0_4043cc2302" y="139.269624"/>
    </g>
    <g clip-path="url(#p53a87a915d)">
     <use style="fill:#d62728;" x="122.434427" xlink:href="#C0_0_4043cc2302" y="81.806835"/>
    </g>
    <g clip-path="url(#p53a87a915d)">
     <use style="fill:#9467bd;" x="146.752586" xlink:href="#C0_0_4043cc2302" y="111.146845"/>
    </g>
    <g clip-path="url(#p53a87a915d)">
     <use style="fill:#8c564b;" x="160.106387" xlink:href="#C0_0_4043cc2302" y="82.307168"/>
    </g>
    <g clip-path="url(#p53a87a915d)">
     <use style="fill:#d62728;" x="137.735699" xlink:href="#C0_0_4043cc2302" y="83.91088"/>
    </g>
    <g clip-path="url(#p53a87a915d)">
     <use style="fill:#9467bd;" x="126.746944" xlink:href="#C0_0_4043cc2302" y="118.191101"/>
    </g>
    <g clip-path="url(#p53a87a915d)">
     <use style="fill:#8c564b;" x="158.345053" xlink:href="#C0_0_4043cc2302" y="78.355807"/>
    </g>
   </g>
   <g id="PathCollection_3"/>
   <g id="PathCollection_4"/>
   <g id="PathCollection_5"/>
   <g id="PathCollection_6"/>
   <g id="PathCollection_7"/>
   <g id="PathCollection_8"/>
   <g id="matplotlib.axis_1">
    <g id="xtick_1">
     <g id="line2d_1">
      <defs>
       <path d="M 0 0 
L 0 3.5 
" id="m74cc44c1c5" style="stroke:#000000;stroke-width:0.8;"/>
      </defs>
      <g>
       <use style="stroke:#000000;stroke-width:0.8;" x="61.018889" xlink:href="#m74cc44c1c5" y="192.24"/>
      </g>
     </g>
     <g id="text_1">
      <text style="font-family:DejaVu Sans;font-size:10px;font-stretch:normal;font-style:normal;font-weight:normal;text-anchor:middle;" transform="rotate(-0, 61.018889, 206.838437)" x="61.018889" y="206.838437">2.5</text>
     </g>
    </g>
    <g id="xtick_2">
     <g id="line2d_2">
      <g>
       <use style="stroke:#000000;stroke-width:0.8;" x="98.328299" xlink:href="#m74cc44c1c5" y="192.24"/>
      </g>
     </g>
     <g id="text_2">
      <text style="font-family:DejaVu Sans;font-size:10px;font-stretch:normal;font-style:normal;font-weight:normal;text-anchor:middle;" transform="rotate(-0, 98.328299, 206.838437)" x="98.328299" y="206.838437">5.0</text>
     </g>
    </g>
    <g id="xtick_3">
     <g id="line2d_3">
      <g>
       <use style="stroke:#000000;stroke-width:0.8;" x="135.637708" xlink:href="#m74cc44c1c5" y="192.24"/>
      </g>
     </g>
     <g id="text_3">
      <text style="font-family:DejaVu Sans;font-size:10px;font-stretch:normal;font-style:normal;font-weight:normal;text-anchor:middle;" transform="rotate(-0, 135.637708, 206.838437)" x="135.637708" y="206.838437">7.5</text>
     </g>
    </g>
    <g id="xtick_4">
     <g id="line2d_4">
      <g>
       <use style="stroke:#000000;stroke-width:0.8;" x="172.947118" xlink:href="#m74cc44c1c5" y="192.24"/>
      </g>
     </g>
     <g id="text_4">
      <text style="font-family:DejaVu Sans;font-size:10px;font-stretch:normal;font-style:normal;font-weight:normal;text-anchor:middle;" transform="rotate(-0, 172.947118, 206.838437)" x="172.947118" y="206.838437">10.0</text>
     </g>
    </g>
    <g id="text_5">
     <text style="font-family:DejaVu Sans;font-size:10px;font-stretch:normal;font-style:normal;font-weight:normal;text-anchor:middle;" transform="rotate(-0, 110.7, 220.516562)" x="110.7" y="220.516562">log2FPKMplus1</text>
    </g>
   </g>
   <g id="matplotlib.axis_2">
    <g id="ytick_1">
     <g id="line2d_5">
      <defs>
       <path d="M 0 0 
L -3.5 0 
" id="m2b5df05b03" style="stroke:#000000;stroke-width:0.8;"/>
      </defs>
      <g>
       <use style="stroke:#000000;stroke-width:0.8;" x="27" xlink:href="#m2b5df05b03" y="186.07165"/>
      </g>
     </g>
     <g id="text_6">
      <text style="font-family:DejaVu Sans;font-size:10px;font-stretch:normal;font-style:normal;font-weight:normal;text-anchor:end;" transform="rotate(-0, 20, 189.870868)" x="20" y="189.870868">−2</text>
     </g>
    </g>
    <g id="ytick_2">
     <g id="line2d_6">
      <g>
       <use style="stroke:#000000;stroke-width:0.8;" x="27" xlink:href="#m2b5df05b03" y="155.673704"/>
      </g>
     </g>
     <g id="text_7">
      <text style="font-family:DejaVu Sans;font-size:10px;font-stretch:normal;font-style:normal;font-weight:normal;text-anchor:end;" transform="rotate(-0, 20, 159.472923)" x="20" y="159.472923">0</text>
     </g>
    </g>
    <g id="ytick_3">
     <g id="line2d_7">
      <g>
       <use style="stroke:#000000;stroke-width:0.8;" x="27" xlink:href="#m2b5df05b03" y="125.275759"/>
      </g>
     </g>
     <g id="text_8">
      <text style="font-family:DejaVu Sans;font-size:10px;font-stretch:normal;font-style:normal;font-weight:normal;text-anchor:end;" transform="rotate(-0, 20, 129.074977)" x="20" y="129.074977">2</text>
     </g>
    </g>
    <g id="ytick_4">
     <g id="line2d_8">
      <g>
       <use style="stroke:#000000;stroke-width:0.8;" x="27" xlink:href="#m2b5df05b03" y="94.877813"/>
      </g>
     </g>
     <g id="text_9">
      <text style="font-family:DejaVu Sans;font-size:10px;font-stretch:normal;font-style:normal;font-weight:normal;text-anchor:end;" transform="rotate(-0, 20, 98.677032)" x="20" y="98.677032">4</text>
     </g>
    </g>
    <g id="ytick_5">
     <g id="line2d_9">
      <g>
       <use style="stroke:#000000;stroke-width:0.8;" x="27" xlink:href="#m2b5df05b03" y="64.479868"/>
      </g>
     </g>
     <g id="text_10">
      <text style="font-family:DejaVu Sans;font-size:10px;font-stretch:normal;font-style:normal;font-weight:normal;text-anchor:end;" transform="rotate(-0, 20, 68.279086)" x="20" y="68.279086">6</text>
     </g>
    </g>
    <g id="ytick_6">
     <g id="line2d_10">
      <g>
       <use style="stroke:#000000;stroke-width:0.8;" x="27" xlink:href="#m2b5df05b03" y="34.081922"/>
      </g>
     </g>
     <g id="text_11">
      <text style="font-family:DejaVu Sans;font-size:10px;font-stretch:normal;font-style:normal;font-weight:normal;text-anchor:end;" transform="rotate(-0, 20, 37.881141)" x="20" y="37.881141">8</text>
     </g>
    </g>
    <g id="text_12">
     <text style="font-family:DejaVu Sans;font-size:10px;font-stretch:normal;font-style:normal;font-weight:normal;text-anchor:middle;" transform="rotate(-90, -0.821875, 109.08)" x="-0.821875" y="109.08">log2MeanCounts</text>
    </g>
   </g>
   <g id="line2d_11">
    <path clip-path="url(#p53a87a915d)" d="M 27 167.573988 
L 28.690909 166.327961 
L 30.381818 165.081933 
L 32.072727 163.835905 
L 33.763636 162.589877 
L 35.454545 161.343849 
L 37.145455 160.097822 
L 38.836364 158.851794 
L 40.527273 157.605766 
L 42.218182 156.359738 
L 43.909091 155.113711 
L 45.6 153.867683 
L 47.290909 152.621655 
L 48.981818 151.375627 
L 50.672727 150.1296 
L 52.363636 148.883572 
L 54.054545 147.637544 
L 55.745455 146.391516 
L 57.436364 145.145489 
L 59.127273 143.899461 
L 60.818182 142.653433 
L 62.509091 141.407405 
L 64.2 140.161378 
L 65.890909 138.91535 
L 67.581818 137.669322 
L 69.272727 136.423294 
L 70.963636 135.177266 
L 72.654545 133.931239 
L 74.345455 132.685211 
L 76.036364 131.439183 
L 77.727273 130.193155 
L 79.418182 128.947128 
L 81.109091 127.7011 
L 82.8 126.455072 
L 84.490909 125.209044 
L 86.181818 123.963017 
L 87.872727 122.716989 
L 89.563636 121.470961 
L 91.254545 120.224933 
L 92.945455 118.978906 
L 94.636364 117.732878 
L 96.327273 116.48685 
L 98.018182 115.240822 
L 99.709091 113.994794 
L 101.4 112.748767 
L 103.090909 111.502739 
L 104.781818 110.256711 
L 106.472727 109.010683 
L 108.163636 107.764656 
L 109.854545 106.518628 
L 111.545455 105.2726 
L 113.236364 104.026572 
L 114.927273 102.780545 
L 116.618182 101.534517 
L 118.309091 100.288489 
L 120 99.042461 
L 121.690909 97.796434 
L 123.381818 96.550406 
L 125.072727 95.304378 
L 126.763636 94.05835 
L 128.454545 92.812322 
L 130.145455 91.566295 
L 131.836364 90.320267 
L 133.527273 89.074239 
L 135.218182 87.828211 
L 136.909091 86.582184 
L 138.6 85.336156 
L 140.290909 84.090128 
L 141.981818 82.8441 
L 143.672727 81.598073 
L 145.363636 80.352045 
L 147.054545 79.106017 
L 148.745455 77.859989 
L 150.436364 76.613962 
L 152.127273 75.367934 
L 153.818182 74.121906 
L 155.509091 72.875878 
L 157.2 71.629851 
L 158.890909 70.383823 
L 160.581818 69.137795 
L 162.272727 67.891767 
L 163.963636 66.645739 
L 165.654545 65.399712 
L 167.345455 64.153684 
L 169.036364 62.907656 
L 170.727273 61.661628 
L 172.418182 60.415601 
L 174.109091 59.169573 
L 175.8 57.923545 
L 177.490909 56.677517 
L 179.181818 55.43149 
L 180.872727 54.185462 
L 182.563636 52.939434 
L 184.254545 51.693406 
L 185.945455 50.447379 
L 187.636364 49.201351 
L 189.327273 47.955323 
L 191.018182 46.709295 
L 192.709091 45.463267 
L 194.4 44.21724 
" style="fill:none;stroke:#808080;stroke-linecap:square;stroke-width:2.25;"/>
   </g>
   <g id="patch_3">
    <path d="M 27 192.24 
L 27 25.92 
" style="fill:none;stroke:#000000;stroke-linecap:square;stroke-linejoin:miter;stroke-width:0.8;"/>
   </g>
   <g id="patch_4">
    <path d="M 27 192.24 
L 194.4 192.24 
" style="fill:none;stroke:#000000;stroke-linecap:square;stroke-linejoin:miter;stroke-width:0.8;"/>
   </g>
   <g id="legend_1">
    <g id="patch_5">
     <path d="M 201.4 154.614375 
L 260.079687 154.614375 
Q 262.079687 154.614375 262.079687 152.614375 
L 262.079687 65.545625 
Q 262.079687 63.545625 260.079687 63.545625 
L 201.4 63.545625 
Q 199.4 63.545625 199.4 65.545625 
L 199.4 152.614375 
Q 199.4 154.614375 201.4 154.614375 
z
" style="fill:#ffffff;opacity:0.8;stroke:#cccccc;stroke-linejoin:miter;"/>
    </g>
    <g id="PathCollection_9">
     <defs>
      <path d="M 0 3 
C 0.795609 3 1.55874 2.683901 2.12132 2.12132 
C 2.683901 1.55874 3 0.795609 3 0 
C 3 -0.795609 2.683901 -1.55874 2.12132 -2.12132 
C 1.55874 -2.683901 0.795609 -3 0 -3 
C -0.795609 -3 -1.55874 -2.683901 -2.12132 -2.12132 
C -2.683901 -1.55874 -3 -0.795609 -3 0 
C -3 0.795609 -2.683901 1.55874 -2.12132 2.12132 
C -1.55874 2.683901 -0.795609 3 0 3 
z
" id="m02b51f38b7" style="stroke:#1f77b4;"/>
     </defs>
     <g>
      <use style="fill:#1f77b4;stroke:#1f77b4;" x="213.4" xlink:href="#m02b51f38b7" y="72.519062"/>
     </g>
    </g>
    <g id="text_13">
     <text style="font-family:DejaVu Sans;font-size:10px;font-stretch:normal;font-style:normal;font-weight:normal;text-anchor:start;" transform="rotate(-0, 231.4, 75.144062)" x="231.4" y="75.144062">Stat1</text>
    </g>
    <g id="PathCollection_10">
     <defs>
      <path d="M 0 3 
C 0.795609 3 1.55874 2.683901 2.12132 2.12132 
C 2.683901 1.55874 3 0.795609 3 0 
C 3 -0.795609 2.683901 -1.55874 2.12132 -2.12132 
C 1.55874 -2.683901 0.795609 -3 0 -3 
C -0.795609 -3 -1.55874 -2.683901 -2.12132 -2.12132 
C -2.683901 -1.55874 -3 -0.795609 -3 0 
C -3 0.795609 -2.683901 1.55874 -2.12132 2.12132 
C -1.55874 2.683901 -0.795609 3 0 3 
z
" id="md0890f9b65" style="stroke:#ff7f0e;"/>
     </defs>
     <g>
      <use style="fill:#ff7f0e;stroke:#ff7f0e;" x="213.4" xlink:href="#md0890f9b65" y="87.197187"/>
     </g>
    </g>
    <g id="text_14">
     <text style="font-family:DejaVu Sans;font-size:10px;font-stretch:normal;font-style:normal;font-weight:normal;text-anchor:start;" transform="rotate(-0, 231.4, 89.822187)" x="231.4" y="89.822187">Il12b</text>
    </g>
    <g id="PathCollection_11">
     <defs>
      <path d="M 0 3 
C 0.795609 3 1.55874 2.683901 2.12132 2.12132 
C 2.683901 1.55874 3 0.795609 3 0 
C 3 -0.795609 2.683901 -1.55874 2.12132 -2.12132 
C 1.55874 -2.683901 0.795609 -3 0 -3 
C -0.795609 -3 -1.55874 -2.683901 -2.12132 -2.12132 
C -2.683901 -1.55874 -3 -0.795609 -3 0 
C -3 0.795609 -2.683901 1.55874 -2.12132 2.12132 
C -1.55874 2.683901 -0.795609 3 0 3 
z
" id="m9c41ececa8" style="stroke:#2ca02c;"/>
     </defs>
     <g>
      <use style="fill:#2ca02c;stroke:#2ca02c;" x="213.4" xlink:href="#m9c41ececa8" y="101.875312"/>
     </g>
    </g>
    <g id="text_15">
     <text style="font-family:DejaVu Sans;font-size:10px;font-stretch:normal;font-style:normal;font-weight:normal;text-anchor:start;" transform="rotate(-0, 231.4, 104.500312)" x="231.4" y="104.500312">Actb</text>
    </g>
    <g id="PathCollection_12">
     <defs>
      <path d="M 0 3 
C 0.795609 3 1.55874 2.683901 2.12132 2.12132 
C 2.683901 1.55874 3 0.795609 3 0 
C 3 -0.795609 2.683901 -1.55874 2.12132 -2.12132 
C 1.55874 -2.683901 0.795609 -3 0 -3 
C -0.795609 -3 -1.55874 -2.683901 -2.12132 -2.12132 
C -2.683901 -1.55874 -3 -0.795609 -3 0 
C -3 0.795609 -2.683901 1.55874 -2.12132 2.12132 
C -1.55874 2.683901 -0.795609 3 0 3 
z
" id="mb9d1799931" style="stroke:#d62728;"/>
     </defs>
     <g>
      <use style="fill:#d62728;stroke:#d62728;" x="213.4" xlink:href="#mb9d1799931" y="116.553438"/>
     </g>
    </g>
    <g id="text_16">
     <text style="font-family:DejaVu Sans;font-size:10px;font-stretch:normal;font-style:normal;font-weight:normal;text-anchor:start;" transform="rotate(-0, 231.4, 119.178438)" x="231.4" y="119.178438">Cd40</text>
    </g>
    <g id="PathCollection_13">
     <defs>
      <path d="M 0 3 
C 0.795609 3 1.55874 2.683901 2.12132 2.12132 
C 2.683901 1.55874 3 0.795609 3 0 
C 3 -0.795609 2.683901 -1.55874 2.12132 -2.12132 
C 1.55874 -2.683901 0.795609 -3 0 -3 
C -0.795609 -3 -1.55874 -2.683901 -2.12132 -2.12132 
C -2.683901 -1.55874 -3 -0.795609 -3 0 
C -3 0.795609 -2.683901 1.55874 -2.12132 2.12132 
C -1.55874 2.683901 -0.795609 3 0 3 
z
" id="md7a8088441" style="stroke:#9467bd;"/>
     </defs>
     <g>
      <use style="fill:#9467bd;stroke:#9467bd;" x="213.4" xlink:href="#md7a8088441" y="131.231562"/>
     </g>
    </g>
    <g id="text_17">
     <text style="font-family:DejaVu Sans;font-size:10px;font-stretch:normal;font-style:normal;font-weight:normal;text-anchor:start;" transform="rotate(-0, 231.4, 133.856562)" x="231.4" y="133.856562">Atf3</text>
    </g>
    <g id="PathCollection_14">
     <defs>
      <path d="M 0 3 
C 0.795609 3 1.55874 2.683901 2.12132 2.12132 
C 2.683901 1.55874 3 0.795609 3 0 
C 3 -0.795609 2.683901 -1.55874 2.12132 -2.12132 
C 1.55874 -2.683901 0.795609 -3 0 -3 
C -0.795609 -3 -1.55874 -2.683901 -2.12132 -2.12132 
C -2.683901 -1.55874 -3 -0.795609 -3 0 
C -3 0.795609 -2.683901 1.55874 -2.12132 2.12132 
C -1.55874 2.683901 -0.795609 3 0 3 
z
" id="me8f7f118b3" style="stroke:#8c564b;"/>
     </defs>
     <g>
      <use style="fill:#8c564b;stroke:#8c564b;" x="213.4" xlink:href="#me8f7f118b3" y="145.909687"/>
     </g>
    </g>
    <g id="text_18">
     <text style="font-family:DejaVu Sans;font-size:10px;font-stretch:normal;font-style:normal;font-weight:normal;text-anchor:start;" transform="rotate(-0, 231.4, 148.534687)" x="231.4" y="148.534687">Tnf</text>
    </g>
   </g>
  </g>
 </g>
 <defs>
  <clipPath id="p53a87a915d">
   <rect height="166.32" width="167.4" x="27" y="25.92"/>
  </clipPath>
 </defs>
</svg>
