<?xml version="1.0" encoding="utf-8" standalone="no"?>
<!DOCTYPE svg PUBLIC "-//W3C//DTD SVG 1.1//EN"
  "http://www.w3.org/Graphics/SVG/1.1/DTD/svg11.dtd">
<!-- Created with matplotlib (https://matplotlib.org/) -->
<svg height="216pt" version="1.1" viewBox="0 0 216 216" width="216pt" xmlns="http://www.w3.org/2000/svg" xmlns:xlink="http://www.w3.org/1999/xlink">
 <metadata>
  <rdf:RDF xmlns:cc="http://creativecommons.org/ns#" xmlns:dc="http://purl.org/dc/elements/1.1/" xmlns:rdf="http://www.w3.org/1999/02/22-rdf-syntax-ns#">
   <cc:Work>
    <dc:type rdf:resource="http://purl.org/dc/dcmitype/StillImage"/>
    <dc:date>2022-02-28T14:09:22.709613</dc:date>
    <dc:format>image/svg+xml</dc:format>
    <dc:creator>
     <cc:Agent>
      <dc:title>Matplotlib v3.3.4, https://matplotlib.org/</dc:title>
     </cc:Agent>
    </dc:creator>
   </cc:Work>
  </rdf:RDF>
 </metadata>
 <defs>
  <style type="text/css">*{stroke-linecap:butt;stroke-linejoin:round;}</style>
 </defs>
 <g id="figure_1">
  <g id="patch_1">
   <path d="M 0 216 
L 216 216 
L 216 0 
L 0 0 
z
" style="fill:#ffffff;"/>
  </g>
  <g id="axes_1">
   <g id="patch_2">
    <path d="M 27 192.24 
L 194.4 192.24 
L 194.4 25.92 
L 27 25.92 
z
" style="fill:#ffffff;"/>
   </g>
   <g id="PathCollection_1">
    <defs>
     <path d="M 0 3 
C 0.795609 3 1.55874 2.683901 2.12132 2.12132 
C 2.683901 1.55874 3 0.795609 3 0 
C 3 -0.795609 2.683901 -1.55874 2.12132 -2.12132 
C 1.55874 -2.683901 0.795609 -3 0 -3 
C -0.795609 -3 -1.55874 -2.683901 -2.12132 -2.12132 
C -2.683901 -1.55874 -3 -0.795609 -3 0 
C -3 0.795609 -2.683901 1.55874 -2.12132 2.12132 
C -1.55874 2.683901 -0.795609 3 0 3 
z
" id="ma5c0bd21df" style="stroke:#808080;stroke-opacity:0.8;"/>
    </defs>
    <g clip-path="url(#p56bd899507)">
     <use style="fill:#808080;fill-opacity:0.8;stroke:#808080;stroke-opacity:0.8;" x="125.135911" xlink:href="#ma5c0bd21df" y="94.591994"/>
     <use style="fill:#808080;fill-opacity:0.8;stroke:#808080;stroke-opacity:0.8;" x="34.609091" xlink:href="#ma5c0bd21df" y="147.694825"/>
     <use style="fill:#808080;fill-opacity:0.8;stroke:#808080;stroke-opacity:0.8;" x="172.871929" xlink:href="#ma5c0bd21df" y="34.423588"/>
     <use style="fill:#808080;fill-opacity:0.8;stroke:#808080;stroke-opacity:0.8;" x="118.204658" xlink:href="#ma5c0bd21df" y="94.497382"/>
     <use style="fill:#808080;fill-opacity:0.8;stroke:#808080;stroke-opacity:0.8;" x="134.139857" xlink:href="#ma5c0bd21df" y="79.296558"/>
     <use style="fill:#808080;fill-opacity:0.8;stroke:#808080;stroke-opacity:0.8;" x="173.184484" xlink:href="#ma5c0bd21df" y="33.502105"/>
     <use style="fill:#808080;fill-opacity:0.8;stroke:#808080;stroke-opacity:0.8;" x="131.042336" xlink:href="#ma5c0bd21df" y="75.950765"/>
     <use style="fill:#808080;fill-opacity:0.8;stroke:#808080;stroke-opacity:0.8;" x="126.946388" xlink:href="#ma5c0bd21df" y="76.002145"/>
     <use style="fill:#808080;fill-opacity:0.8;stroke:#808080;stroke-opacity:0.8;" x="186.790909" xlink:href="#ma5c0bd21df" y="36.479552"/>
     <use style="fill:#808080;fill-opacity:0.8;stroke:#808080;stroke-opacity:0.8;" x="105.125576" xlink:href="#ma5c0bd21df" y="97.995369"/>
     <use style="fill:#808080;fill-opacity:0.8;stroke:#808080;stroke-opacity:0.8;" x="34.707836" xlink:href="#ma5c0bd21df" y="159.512154"/>
     <use style="fill:#808080;fill-opacity:0.8;stroke:#808080;stroke-opacity:0.8;" x="172.310612" xlink:href="#ma5c0bd21df" y="36.508113"/>
     <use style="fill:#808080;fill-opacity:0.8;stroke:#808080;stroke-opacity:0.8;" x="105.753566" xlink:href="#ma5c0bd21df" y="98.950643"/>
     <use style="fill:#808080;fill-opacity:0.8;stroke:#808080;stroke-opacity:0.8;" x="103.221589" xlink:href="#ma5c0bd21df" y="109.081826"/>
     <use style="fill:#808080;fill-opacity:0.8;stroke:#808080;stroke-opacity:0.8;" x="175.549037" xlink:href="#ma5c0bd21df" y="35.282535"/>
     <use style="fill:#808080;fill-opacity:0.8;stroke:#808080;stroke-opacity:0.8;" x="121.32731" xlink:href="#ma5c0bd21df" y="76.441364"/>
     <use style="fill:#808080;fill-opacity:0.8;stroke:#808080;stroke-opacity:0.8;" x="111.543839" xlink:href="#ma5c0bd21df" y="105.427554"/>
     <use style="fill:#808080;fill-opacity:0.8;stroke:#808080;stroke-opacity:0.8;" x="180.372659" xlink:href="#ma5c0bd21df" y="33.701046"/>
     <use style="fill:#808080;fill-opacity:0.8;stroke:#808080;stroke-opacity:0.8;" x="63.566023" xlink:href="#ma5c0bd21df" y="151.797952"/>
     <use style="fill:#808080;fill-opacity:0.8;stroke:#808080;stroke-opacity:0.8;" x="125.968265" xlink:href="#ma5c0bd21df" y="128.456213"/>
     <use style="fill:#808080;fill-opacity:0.8;stroke:#808080;stroke-opacity:0.8;" x="94.605406" xlink:href="#ma5c0bd21df" y="119.79037"/>
     <use style="fill:#808080;fill-opacity:0.8;stroke:#808080;stroke-opacity:0.8;" x="110.188367" xlink:href="#ma5c0bd21df" y="94.943504"/>
     <use style="fill:#808080;fill-opacity:0.8;stroke:#808080;stroke-opacity:0.8;" x="141.798669" xlink:href="#ma5c0bd21df" y="125.837862"/>
     <use style="fill:#808080;fill-opacity:0.8;stroke:#808080;stroke-opacity:0.8;" x="176.845289" xlink:href="#ma5c0bd21df" y="69.656676"/>
     <use style="fill:#808080;fill-opacity:0.8;stroke:#808080;stroke-opacity:0.8;" x="124.749663" xlink:href="#ma5c0bd21df" y="77.266826"/>
     <use style="fill:#808080;fill-opacity:0.8;stroke:#808080;stroke-opacity:0.8;" x="147.379521" xlink:href="#ma5c0bd21df" y="89.328412"/>
     <use style="fill:#808080;fill-opacity:0.8;stroke:#808080;stroke-opacity:0.8;" x="154.108387" xlink:href="#ma5c0bd21df" y="81.725917"/>
     <use style="fill:#808080;fill-opacity:0.8;stroke:#808080;stroke-opacity:0.8;" x="72.965769" xlink:href="#ma5c0bd21df" y="137.937775"/>
     <use style="fill:#808080;fill-opacity:0.8;stroke:#808080;stroke-opacity:0.8;" x="114.214591" xlink:href="#ma5c0bd21df" y="134.14573"/>
     <use style="fill:#808080;fill-opacity:0.8;stroke:#808080;stroke-opacity:0.8;" x="100.555609" xlink:href="#ma5c0bd21df" y="139.255859"/>
     <use style="fill:#808080;fill-opacity:0.8;stroke:#808080;stroke-opacity:0.8;" x="121.367661" xlink:href="#ma5c0bd21df" y="81.682677"/>
     <use style="fill:#808080;fill-opacity:0.8;stroke:#808080;stroke-opacity:0.8;" x="143.475079" xlink:href="#ma5c0bd21df" y="111.079053"/>
     <use style="fill:#808080;fill-opacity:0.8;stroke:#808080;stroke-opacity:0.8;" x="155.614897" xlink:href="#ma5c0bd21df" y="82.183971"/>
     <use style="fill:#808080;fill-opacity:0.8;stroke:#808080;stroke-opacity:0.8;" x="135.277908" xlink:href="#ma5c0bd21df" y="83.790764"/>
     <use style="fill:#808080;fill-opacity:0.8;stroke:#808080;stroke-opacity:0.8;" x="125.288131" xlink:href="#ma5c0bd21df" y="118.136842"/>
     <use style="fill:#808080;fill-opacity:0.8;stroke:#808080;stroke-opacity:0.8;" x="154.013685" xlink:href="#ma5c0bd21df" y="78.225019"/>
    </g>
   </g>
   <g id="PolyCollection_1">
    <path clip-path="url(#p56bd899507)" d="M 34.609091 156.524861 
L 34.609091 184.68 
L 36.146281 183.192522 
L 37.683471 181.705045 
L 39.220661 180.217234 
L 40.757851 178.728769 
L 42.295041 177.263268 
L 43.832231 175.792691 
L 45.369421 174.265987 
L 46.906612 172.779793 
L 48.443802 171.292701 
L 49.980992 169.805223 
L 51.518182 168.317746 
L 53.055372 166.830268 
L 54.592562 165.34279 
L 56.129752 163.855313 
L 57.666942 162.364114 
L 59.204132 160.880967 
L 60.741322 159.360209 
L 62.278512 157.845534 
L 63.815702 156.339341 
L 65.352893 154.871557 
L 66.890083 153.446875 
L 68.427273 151.962318 
L 69.964463 150.500743 
L 71.501653 149.155137 
L 73.038843 147.809531 
L 74.576033 146.463925 
L 76.113223 145.118319 
L 77.650413 143.751759 
L 79.187603 142.334504 
L 80.724793 140.880827 
L 82.261983 139.425499 
L 83.799174 137.968624 
L 85.336364 136.480893 
L 86.873554 135.057972 
L 88.410744 133.658835 
L 89.947934 132.319461 
L 91.485124 130.94233 
L 93.022314 129.412366 
L 94.559504 127.881912 
L 96.096694 126.388347 
L 97.633884 125.055114 
L 99.171074 123.57008 
L 100.708264 122.083149 
L 102.245455 120.661314 
L 103.782645 119.165739 
L 105.319835 117.678339 
L 106.857025 116.411272 
L 108.394215 114.995041 
L 109.931405 113.567898 
L 111.468595 112.23696 
L 113.005785 110.885971 
L 114.542975 109.479904 
L 116.080165 108.167508 
L 117.617355 106.643307 
L 119.154545 105.370956 
L 120.691736 104.093133 
L 122.228926 102.81567 
L 123.766116 101.426929 
L 125.303306 100.067268 
L 126.840496 98.815152 
L 128.377686 97.564147 
L 129.914876 96.355865 
L 131.452066 95.070196 
L 132.989256 93.821755 
L 134.526446 92.579102 
L 136.063636 91.379606 
L 137.600826 90.327212 
L 139.138017 89.325161 
L 140.675207 88.094528 
L 142.212397 86.973476 
L 143.749587 85.833357 
L 145.286777 84.717804 
L 146.823967 83.638412 
L 148.361157 82.558179 
L 149.898347 81.473963 
L 151.435537 80.398254 
L 152.972727 79.208237 
L 154.509917 78.179577 
L 156.047107 77.063174 
L 157.584298 76.014966 
L 159.121488 74.839999 
L 160.658678 73.68045 
L 162.195868 72.479085 
L 163.733058 71.329586 
L 165.270248 70.269145 
L 166.807438 69.188193 
L 168.344628 68.11615 
L 169.881818 67.047371 
L 171.419008 65.9938 
L 172.956198 64.907886 
L 174.493388 63.838919 
L 176.030579 62.767918 
L 177.567769 61.711996 
L 179.104959 60.659001 
L 180.642149 59.606005 
L 182.179339 58.55301 
L 183.716529 57.461967 
L 185.253719 56.368522 
L 186.790909 55.274354 
L 186.790909 33.48 
L 186.790909 33.48 
L 185.253719 34.91278 
L 183.716529 36.344279 
L 182.179339 37.776418 
L 180.642149 39.208557 
L 179.104959 40.640696 
L 177.567769 42.04289 
L 176.030579 43.465058 
L 174.493388 44.905451 
L 172.956198 46.315632 
L 171.419008 47.690821 
L 169.881818 49.06601 
L 168.344628 50.444327 
L 166.807438 51.817155 
L 165.270248 53.216704 
L 163.733058 54.700061 
L 162.195868 56.121254 
L 160.658678 57.490891 
L 159.121488 58.858373 
L 157.584298 60.229012 
L 156.047107 61.644231 
L 154.509917 62.984546 
L 152.972727 64.335808 
L 151.435537 65.699872 
L 149.898347 66.989378 
L 148.361157 68.440846 
L 146.823967 69.751826 
L 145.286777 71.074569 
L 143.749587 72.457555 
L 142.212397 73.844203 
L 140.675207 75.212165 
L 139.138017 76.62486 
L 137.600826 77.970996 
L 136.063636 79.343064 
L 134.526446 80.697788 
L 132.989256 82.01249 
L 131.452066 83.225734 
L 129.914876 84.462032 
L 128.377686 85.821797 
L 126.840496 87.106286 
L 125.303306 88.429981 
L 123.766116 89.717687 
L 122.228926 91.005846 
L 120.691736 92.253346 
L 119.154545 93.576914 
L 117.617355 94.876514 
L 116.080165 96.190424 
L 114.542975 97.379528 
L 113.005785 98.5702 
L 111.468595 99.771825 
L 109.931405 100.981221 
L 108.394215 102.152952 
L 106.857025 103.327767 
L 105.319835 104.517439 
L 103.782645 105.737225 
L 102.245455 106.951806 
L 100.708264 108.182023 
L 99.171074 109.333479 
L 97.633884 110.475679 
L 96.096694 111.660869 
L 94.559504 112.844933 
L 93.022314 114.054498 
L 91.485124 115.224176 
L 89.947934 116.413159 
L 88.410744 117.602568 
L 86.873554 118.782549 
L 85.336364 119.910219 
L 83.799174 121.034387 
L 82.261983 122.204132 
L 80.724793 123.374529 
L 79.187603 124.533799 
L 77.650413 125.698267 
L 76.113223 126.886939 
L 74.576033 128.056327 
L 73.038843 129.226511 
L 71.501653 130.394916 
L 69.964463 131.507194 
L 68.427273 132.593858 
L 66.890083 133.688563 
L 65.352893 134.76369 
L 63.815702 135.846784 
L 62.278512 136.929877 
L 60.741322 138.01297 
L 59.204132 139.096395 
L 57.666942 140.148622 
L 56.129752 141.260561 
L 54.592562 142.347887 
L 53.055372 143.427653 
L 51.518182 144.516183 
L 49.980992 145.641731 
L 48.443802 146.73178 
L 46.906612 147.795534 
L 45.369421 148.938265 
L 43.832231 150.081236 
L 42.295041 151.220519 
L 40.757851 152.296554 
L 39.220661 153.334033 
L 37.683471 154.371511 
L 36.146281 155.42814 
L 34.609091 156.524861 
z
" style="fill:#808080;fill-opacity:0.15;"/>
   </g>
   <g id="PathCollection_2">
    <defs>
     <path d="M 0 3.535534 
C 0.937635 3.535534 1.836992 3.163008 2.5 2.5 
C 3.163008 1.836992 3.535534 0.937635 3.535534 -0 
C 3.535534 -0.937635 3.163008 -1.836992 2.5 -2.5 
C 1.836992 -3.163008 0.937635 -3.535534 0 -3.535534 
C -0.937635 -3.535534 -1.836992 -3.163008 -2.5 -2.5 
C -3.163008 -1.836992 -3.535534 -0.937635 -3.535534 0 
C -3.535534 0.937635 -3.163008 1.836992 -2.5 2.5 
C -1.836992 3.163008 -0.937635 3.535534 0 3.535534 
z
" id="C0_0_b84e0fe715"/>
    </defs>
    <g clip-path="url(#p56bd899507)">
     <use style="fill:#1f77b4;" x="125.135911" xlink:href="#C0_0_b84e0fe715" y="94.591994"/>
    </g>
    <g clip-path="url(#p56bd899507)">
     <use style="fill:#ff7f0e;" x="34.609091" xlink:href="#C0_0_b84e0fe715" y="147.694825"/>
    </g>
    <g clip-path="url(#p56bd899507)">
     <use style="fill:#2ca02c;" x="172.871929" xlink:href="#C0_0_b84e0fe715" y="34.423588"/>
    </g>
    <g clip-path="url(#p56bd899507)">
     <use style="fill:#1f77b4;" x="118.204658" xlink:href="#C0_0_b84e0fe715" y="94.497382"/>
    </g>
    <g clip-path="url(#p56bd899507)">
     <use style="fill:#ff7f0e;" x="134.139857" xlink:href="#C0_0_b84e0fe715" y="79.296558"/>
    </g>
    <g clip-path="url(#p56bd899507)">
     <use style="fill:#2ca02c;" x="173.184484" xlink:href="#C0_0_b84e0fe715" y="33.502105"/>
    </g>
    <g clip-path="url(#p56bd899507)">
     <use style="fill:#1f77b4;" x="131.042336" xlink:href="#C0_0_b84e0fe715" y="75.950765"/>
    </g>
    <g clip-path="url(#p56bd899507)">
     <use style="fill:#ff7f0e;" x="126.946388" xlink:href="#C0_0_b84e0fe715" y="76.002145"/>
    </g>
    <g clip-path="url(#p56bd899507)">
     <use style="fill:#2ca02c;" x="186.790909" xlink:href="#C0_0_b84e0fe715" y="36.479552"/>
    </g>
    <g clip-path="url(#p56bd899507)">
     <use style="fill:#1f77b4;" x="105.125576" xlink:href="#C0_0_b84e0fe715" y="97.995369"/>
    </g>
    <g clip-path="url(#p56bd899507)">
     <use style="fill:#ff7f0e;" x="34.707836" xlink:href="#C0_0_b84e0fe715" y="159.512154"/>
    </g>
    <g clip-path="url(#p56bd899507)">
     <use style="fill:#2ca02c;" x="172.310612" xlink:href="#C0_0_b84e0fe715" y="36.508113"/>
    </g>
    <g clip-path="url(#p56bd899507)">
     <use style="fill:#1f77b4;" x="105.753566" xlink:href="#C0_0_b84e0fe715" y="98.950643"/>
    </g>
    <g clip-path="url(#p56bd899507)">
     <use style="fill:#ff7f0e;" x="103.221589" xlink:href="#C0_0_b84e0fe715" y="109.081826"/>
    </g>
    <g clip-path="url(#p56bd899507)">
     <use style="fill:#2ca02c;" x="175.549037" xlink:href="#C0_0_b84e0fe715" y="35.282535"/>
    </g>
    <g clip-path="url(#p56bd899507)">
     <use style="fill:#1f77b4;" x="121.32731" xlink:href="#C0_0_b84e0fe715" y="76.441364"/>
    </g>
    <g clip-path="url(#p56bd899507)">
     <use style="fill:#ff7f0e;" x="111.543839" xlink:href="#C0_0_b84e0fe715" y="105.427554"/>
    </g>
    <g clip-path="url(#p56bd899507)">
     <use style="fill:#2ca02c;" x="180.372659" xlink:href="#C0_0_b84e0fe715" y="33.701046"/>
    </g>
    <g clip-path="url(#p56bd899507)">
     <use style="fill:#d62728;" x="63.566023" xlink:href="#C0_0_b84e0fe715" y="151.797952"/>
    </g>
    <g clip-path="url(#p56bd899507)">
     <use style="fill:#9467bd;" x="125.968265" xlink:href="#C0_0_b84e0fe715" y="128.456213"/>
    </g>
    <g clip-path="url(#p56bd899507)">
     <use style="fill:#8c564b;" x="94.605406" xlink:href="#C0_0_b84e0fe715" y="119.79037"/>
    </g>
    <g clip-path="url(#p56bd899507)">
     <use style="fill:#d62728;" x="110.188367" xlink:href="#C0_0_b84e0fe715" y="94.943504"/>
    </g>
    <g clip-path="url(#p56bd899507)">
     <use style="fill:#9467bd;" x="141.798669" xlink:href="#C0_0_b84e0fe715" y="125.837862"/>
    </g>
    <g clip-path="url(#p56bd899507)">
     <use style="fill:#8c564b;" x="176.845289" xlink:href="#C0_0_b84e0fe715" y="69.656676"/>
    </g>
    <g clip-path="url(#p56bd899507)">
     <use style="fill:#d62728;" x="124.749663" xlink:href="#C0_0_b84e0fe715" y="77.266826"/>
    </g>
    <g clip-path="url(#p56bd899507)">
     <use style="fill:#9467bd;" x="147.379521" xlink:href="#C0_0_b84e0fe715" y="89.328412"/>
    </g>
    <g clip-path="url(#p56bd899507)">
     <use style="fill:#8c564b;" x="154.108387" xlink:href="#C0_0_b84e0fe715" y="81.725917"/>
    </g>
    <g clip-path="url(#p56bd899507)">
     <use style="fill:#d62728;" x="72.965769" xlink:href="#C0_0_b84e0fe715" y="137.937775"/>
    </g>
    <g clip-path="url(#p56bd899507)">
     <use style="fill:#9467bd;" x="114.214591" xlink:href="#C0_0_b84e0fe715" y="134.14573"/>
    </g>
    <g clip-path="url(#p56bd899507)">
     <use style="fill:#8c564b;" x="100.555609" xlink:href="#C0_0_b84e0fe715" y="139.255859"/>
    </g>
    <g clip-path="url(#p56bd899507)">
     <use style="fill:#d62728;" x="121.367661" xlink:href="#C0_0_b84e0fe715" y="81.682677"/>
    </g>
    <g clip-path="url(#p56bd899507)">
     <use style="fill:#9467bd;" x="143.475079" xlink:href="#C0_0_b84e0fe715" y="111.079053"/>
    </g>
    <g clip-path="url(#p56bd899507)">
     <use style="fill:#8c564b;" x="155.614897" xlink:href="#C0_0_b84e0fe715" y="82.183971"/>
    </g>
    <g clip-path="url(#p56bd899507)">
     <use style="fill:#d62728;" x="135.277908" xlink:href="#C0_0_b84e0fe715" y="83.790764"/>
    </g>
    <g clip-path="url(#p56bd899507)">
     <use style="fill:#9467bd;" x="125.288131" xlink:href="#C0_0_b84e0fe715" y="118.136842"/>
    </g>
    <g clip-path="url(#p56bd899507)">
     <use style="fill:#8c564b;" x="154.013685" xlink:href="#C0_0_b84e0fe715" y="78.225019"/>
    </g>
   </g>
   <g id="PathCollection_3"/>
   <g id="PathCollection_4"/>
   <g id="PathCollection_5"/>
   <g id="PathCollection_6"/>
   <g id="PathCollection_7"/>
   <g id="PathCollection_8"/>
   <g id="matplotlib.axis_1">
    <g id="xtick_1">
     <g id="line2d_1">
      <defs>
       <path d="M 0 0 
L 0 3.5 
" id="mffec4a78f1" style="stroke:#000000;stroke-width:0.8;"/>
      </defs>
      <g>
       <use style="stroke:#000000;stroke-width:0.8;" x="31.617709" xlink:href="#mffec4a78f1" y="192.24"/>
      </g>
     </g>
     <g id="text_1">
      <text style="font-family:DejaVu Sans;font-size:10px;font-stretch:normal;font-style:normal;font-weight:normal;text-anchor:middle;" transform="rotate(-0, 31.617709, 206.838437)" x="31.617709" y="206.838437">0.0</text>
     </g>
    </g>
    <g id="xtick_2">
     <g id="line2d_2">
      <g>
       <use style="stroke:#000000;stroke-width:0.8;" x="65.535354" xlink:href="#mffec4a78f1" y="192.24"/>
      </g>
     </g>
     <g id="text_2">
      <text style="font-family:DejaVu Sans;font-size:10px;font-stretch:normal;font-style:normal;font-weight:normal;text-anchor:middle;" transform="rotate(-0, 65.535354, 206.838437)" x="65.535354" y="206.838437">2.5</text>
     </g>
    </g>
    <g id="xtick_3">
     <g id="line2d_3">
      <g>
       <use style="stroke:#000000;stroke-width:0.8;" x="99.452999" xlink:href="#mffec4a78f1" y="192.24"/>
      </g>
     </g>
     <g id="text_3">
      <text style="font-family:DejaVu Sans;font-size:10px;font-stretch:normal;font-style:normal;font-weight:normal;text-anchor:middle;" transform="rotate(-0, 99.452999, 206.838437)" x="99.452999" y="206.838437">5.0</text>
     </g>
    </g>
    <g id="xtick_4">
     <g id="line2d_4">
      <g>
       <use style="stroke:#000000;stroke-width:0.8;" x="133.370644" xlink:href="#mffec4a78f1" y="192.24"/>
      </g>
     </g>
     <g id="text_4">
      <text style="font-family:DejaVu Sans;font-size:10px;font-stretch:normal;font-style:normal;font-weight:normal;text-anchor:middle;" transform="rotate(-0, 133.370644, 206.838437)" x="133.370644" y="206.838437">7.5</text>
     </g>
    </g>
    <g id="xtick_5">
     <g id="line2d_5">
      <g>
       <use style="stroke:#000000;stroke-width:0.8;" x="167.288289" xlink:href="#mffec4a78f1" y="192.24"/>
      </g>
     </g>
     <g id="text_5">
      <text style="font-family:DejaVu Sans;font-size:10px;font-stretch:normal;font-style:normal;font-weight:normal;text-anchor:middle;" transform="rotate(-0, 167.288289, 206.838437)" x="167.288289" y="206.838437">10.0</text>
     </g>
    </g>
    <g id="text_6">
     <text style="font-family:DejaVu Sans;font-size:10px;font-stretch:normal;font-style:normal;font-weight:normal;text-anchor:middle;" transform="rotate(-0, 110.7, 220.516562)" x="110.7" y="220.516562">log2FPKMplus1</text>
    </g>
   </g>
   <g id="matplotlib.axis_2">
    <g id="ytick_1">
     <g id="line2d_6">
      <defs>
       <path d="M 0 0 
L -3.5 0 
" id="mf7c811ef98" style="stroke:#000000;stroke-width:0.8;"/>
      </defs>
      <g>
       <use style="stroke:#000000;stroke-width:0.8;" x="27" xlink:href="#mf7c811ef98" y="186.147796"/>
      </g>
     </g>
     <g id="text_7">
      <text style="font-family:DejaVu Sans;font-size:10px;font-stretch:normal;font-style:normal;font-weight:normal;text-anchor:end;" transform="rotate(-0, 20, 189.947015)" x="20" y="189.947015">−2</text>
     </g>
    </g>
    <g id="ytick_2">
     <g id="line2d_7">
      <g>
       <use style="stroke:#000000;stroke-width:0.8;" x="27" xlink:href="#mf7c811ef98" y="155.691453"/>
      </g>
     </g>
     <g id="text_8">
      <text style="font-family:DejaVu Sans;font-size:10px;font-stretch:normal;font-style:normal;font-weight:normal;text-anchor:end;" transform="rotate(-0, 20, 159.490671)" x="20" y="159.490671">0</text>
     </g>
    </g>
    <g id="ytick_3">
     <g id="line2d_8">
      <g>
       <use style="stroke:#000000;stroke-width:0.8;" x="27" xlink:href="#mf7c811ef98" y="125.235109"/>
      </g>
     </g>
     <g id="text_9">
      <text style="font-family:DejaVu Sans;font-size:10px;font-stretch:normal;font-style:normal;font-weight:normal;text-anchor:end;" transform="rotate(-0, 20, 129.034328)" x="20" y="129.034328">2</text>
     </g>
    </g>
    <g id="ytick_4">
     <g id="line2d_9">
      <g>
       <use style="stroke:#000000;stroke-width:0.8;" x="27" xlink:href="#mf7c811ef98" y="94.778766"/>
      </g>
     </g>
     <g id="text_10">
      <text style="font-family:DejaVu Sans;font-size:10px;font-stretch:normal;font-style:normal;font-weight:normal;text-anchor:end;" transform="rotate(-0, 20, 98.577984)" x="20" y="98.577984">4</text>
     </g>
    </g>
    <g id="ytick_5">
     <g id="line2d_10">
      <g>
       <use style="stroke:#000000;stroke-width:0.8;" x="27" xlink:href="#mf7c811ef98" y="64.322422"/>
      </g>
     </g>
     <g id="text_11">
      <text style="font-family:DejaVu Sans;font-size:10px;font-stretch:normal;font-style:normal;font-weight:normal;text-anchor:end;" transform="rotate(-0, 20, 68.121641)" x="20" y="68.121641">6</text>
     </g>
    </g>
    <g id="ytick_6">
     <g id="line2d_11">
      <g>
       <use style="stroke:#000000;stroke-width:0.8;" x="27" xlink:href="#mf7c811ef98" y="33.866079"/>
      </g>
     </g>
     <g id="text_12">
      <text style="font-family:DejaVu Sans;font-size:10px;font-stretch:normal;font-style:normal;font-weight:normal;text-anchor:end;" transform="rotate(-0, 20, 37.665298)" x="20" y="37.665298">8</text>
     </g>
    </g>
    <g id="text_13">
     <text style="font-family:DejaVu Sans;font-size:10px;font-stretch:normal;font-style:normal;font-weight:normal;text-anchor:middle;" transform="rotate(-90, -0.821875, 109.08)" x="-0.821875" y="109.08">log2MeanCounts</text>
    </g>
   </g>
   <g id="line2d_12">
    <path clip-path="url(#p56bd899507)" d="M 34.609091 167.614599 
L 36.146281 166.366177 
L 37.683471 165.117756 
L 39.220661 163.869334 
L 40.757851 162.620913 
L 42.295041 161.372491 
L 43.832231 160.12407 
L 45.369421 158.875648 
L 46.906612 157.627226 
L 48.443802 156.378805 
L 49.980992 155.130383 
L 51.518182 153.881962 
L 53.055372 152.63354 
L 54.592562 151.385119 
L 56.129752 150.136697 
L 57.666942 148.888276 
L 59.204132 147.639854 
L 60.741322 146.391433 
L 62.278512 145.143011 
L 63.815702 143.89459 
L 65.352893 142.646168 
L 66.890083 141.397747 
L 68.427273 140.149325 
L 69.964463 138.900904 
L 71.501653 137.652482 
L 73.038843 136.404061 
L 74.576033 135.155639 
L 76.113223 133.907217 
L 77.650413 132.658796 
L 79.187603 131.410374 
L 80.724793 130.161953 
L 82.261983 128.913531 
L 83.799174 127.66511 
L 85.336364 126.416688 
L 86.873554 125.168267 
L 88.410744 123.919845 
L 89.947934 122.671424 
L 91.485124 121.423002 
L 93.022314 120.174581 
L 94.559504 118.926159 
L 96.096694 117.677738 
L 97.633884 116.429316 
L 99.171074 115.180895 
L 100.708264 113.932473 
L 102.245455 112.684052 
L 103.782645 111.43563 
L 105.319835 110.187208 
L 106.857025 108.938787 
L 108.394215 107.690365 
L 109.931405 106.441944 
L 111.468595 105.193522 
L 113.005785 103.945101 
L 114.542975 102.696679 
L 116.080165 101.448258 
L 117.617355 100.199836 
L 119.154545 98.951415 
L 120.691736 97.702993 
L 122.228926 96.454572 
L 123.766116 95.20615 
L 125.303306 93.957729 
L 126.840496 92.709307 
L 128.377686 91.460886 
L 129.914876 90.212464 
L 131.452066 88.964043 
L 132.989256 87.715621 
L 134.526446 86.467199 
L 136.063636 85.218778 
L 137.600826 83.970356 
L 139.138017 82.721935 
L 140.675207 81.473513 
L 142.212397 80.225092 
L 143.749587 78.97667 
L 145.286777 77.728249 
L 146.823967 76.479827 
L 148.361157 75.231406 
L 149.898347 73.982984 
L 151.435537 72.734563 
L 152.972727 71.486141 
L 154.509917 70.23772 
L 156.047107 68.989298 
L 157.584298 67.740877 
L 159.121488 66.492455 
L 160.658678 65.244034 
L 162.195868 63.995612 
L 163.733058 62.74719 
L 165.270248 61.498769 
L 166.807438 60.250347 
L 168.344628 59.001926 
L 169.881818 57.753504 
L 171.419008 56.505083 
L 172.956198 55.256661 
L 174.493388 54.00824 
L 176.030579 52.759818 
L 177.567769 51.511397 
L 179.104959 50.262975 
L 180.642149 49.014554 
L 182.179339 47.766132 
L 183.716529 46.517711 
L 185.253719 45.269289 
L 186.790909 44.020868 
" style="fill:none;stroke:#808080;stroke-linecap:square;stroke-width:2.25;"/>
   </g>
   <g id="patch_3">
    <path d="M 27 192.24 
L 27 25.92 
" style="fill:none;stroke:#000000;stroke-linecap:square;stroke-linejoin:miter;stroke-width:0.8;"/>
   </g>
   <g id="patch_4">
    <path d="M 27 192.24 
L 194.4 192.24 
" style="fill:none;stroke:#000000;stroke-linecap:square;stroke-linejoin:miter;stroke-width:0.8;"/>
   </g>
   <g id="legend_1">
    <g id="patch_5">
     <path d="M 201.4 154.614375 
L 260.079687 154.614375 
Q 262.079687 154.614375 262.079687 152.614375 
L 262.079687 65.545625 
Q 262.079687 63.545625 260.079687 63.545625 
L 201.4 63.545625 
Q 199.4 63.545625 199.4 65.545625 
L 199.4 152.614375 
Q 199.4 154.614375 201.4 154.614375 
z
" style="fill:#ffffff;opacity:0.8;stroke:#cccccc;stroke-linejoin:miter;"/>
    </g>
    <g id="PathCollection_9">
     <defs>
      <path d="M 0 3 
C 0.795609 3 1.55874 2.683901 2.12132 2.12132 
C 2.683901 1.55874 3 0.795609 3 0 
C 3 -0.795609 2.683901 -1.55874 2.12132 -2.12132 
C 1.55874 -2.683901 0.795609 -3 0 -3 
C -0.795609 -3 -1.55874 -2.683901 -2.12132 -2.12132 
C -2.683901 -1.55874 -3 -0.795609 -3 0 
C -3 0.795609 -2.683901 1.55874 -2.12132 2.12132 
C -1.55874 2.683901 -0.795609 3 0 3 
z
" id="m0d0cd46a8b" style="stroke:#1f77b4;"/>
     </defs>
     <g>
      <use style="fill:#1f77b4;stroke:#1f77b4;" x="213.4" xlink:href="#m0d0cd46a8b" y="72.519062"/>
     </g>
    </g>
    <g id="text_14">
     <text style="font-family:DejaVu Sans;font-size:10px;font-stretch:normal;font-style:normal;font-weight:normal;text-anchor:start;" transform="rotate(-0, 231.4, 75.144062)" x="231.4" y="75.144062">Stat1</text>
    </g>
    <g id="PathCollection_10">
     <defs>
      <path d="M 0 3 
C 0.795609 3 1.55874 2.683901 2.12132 2.12132 
C 2.683901 1.55874 3 0.795609 3 0 
C 3 -0.795609 2.683901 -1.55874 2.12132 -2.12132 
C 1.55874 -2.683901 0.795609 -3 0 -3 
C -0.795609 -3 -1.55874 -2.683901 -2.12132 -2.12132 
C -2.683901 -1.55874 -3 -0.795609 -3 0 
C -3 0.795609 -2.683901 1.55874 -2.12132 2.12132 
C -1.55874 2.683901 -0.795609 3 0 3 
z
" id="m4b41f69c53" style="stroke:#ff7f0e;"/>
     </defs>
     <g>
      <use style="fill:#ff7f0e;stroke:#ff7f0e;" x="213.4" xlink:href="#m4b41f69c53" y="87.197187"/>
     </g>
    </g>
    <g id="text_15">
     <text style="font-family:DejaVu Sans;font-size:10px;font-stretch:normal;font-style:normal;font-weight:normal;text-anchor:start;" transform="rotate(-0, 231.4, 89.822187)" x="231.4" y="89.822187">Il12b</text>
    </g>
    <g id="PathCollection_11">
     <defs>
      <path d="M 0 3 
C 0.795609 3 1.55874 2.683901 2.12132 2.12132 
C 2.683901 1.55874 3 0.795609 3 0 
C 3 -0.795609 2.683901 -1.55874 2.12132 -2.12132 
C 1.55874 -2.683901 0.795609 -3 0 -3 
C -0.795609 -3 -1.55874 -2.683901 -2.12132 -2.12132 
C -2.683901 -1.55874 -3 -0.795609 -3 0 
C -3 0.795609 -2.683901 1.55874 -2.12132 2.12132 
C -1.55874 2.683901 -0.795609 3 0 3 
z
" id="m659147aea1" style="stroke:#2ca02c;"/>
     </defs>
     <g>
      <use style="fill:#2ca02c;stroke:#2ca02c;" x="213.4" xlink:href="#m659147aea1" y="101.875312"/>
     </g>
    </g>
    <g id="text_16">
     <text style="font-family:DejaVu Sans;font-size:10px;font-stretch:normal;font-style:normal;font-weight:normal;text-anchor:start;" transform="rotate(-0, 231.4, 104.500312)" x="231.4" y="104.500312">Actb</text>
    </g>
    <g id="PathCollection_12">
     <defs>
      <path d="M 0 3 
C 0.795609 3 1.55874 2.683901 2.12132 2.12132 
C 2.683901 1.55874 3 0.795609 3 0 
C 3 -0.795609 2.683901 -1.55874 2.12132 -2.12132 
C 1.55874 -2.683901 0.795609 -3 0 -3 
C -0.795609 -3 -1.55874 -2.683901 -2.12132 -2.12132 
C -2.683901 -1.55874 -3 -0.795609 -3 0 
C -3 0.795609 -2.683901 1.55874 -2.12132 2.12132 
C -1.55874 2.683901 -0.795609 3 0 3 
z
" id="m15b4e7fe6b" style="stroke:#d62728;"/>
     </defs>
     <g>
      <use style="fill:#d62728;stroke:#d62728;" x="213.4" xlink:href="#m15b4e7fe6b" y="116.553438"/>
     </g>
    </g>
    <g id="text_17">
     <text style="font-family:DejaVu Sans;font-size:10px;font-stretch:normal;font-style:normal;font-weight:normal;text-anchor:start;" transform="rotate(-0, 231.4, 119.178438)" x="231.4" y="119.178438">Cd40</text>
    </g>
    <g id="PathCollection_13">
     <defs>
      <path d="M 0 3 
C 0.795609 3 1.55874 2.683901 2.12132 2.12132 
C 2.683901 1.55874 3 0.795609 3 0 
C 3 -0.795609 2.683901 -1.55874 2.12132 -2.12132 
C 1.55874 -2.683901 0.795609 -3 0 -3 
C -0.795609 -3 -1.55874 -2.683901 -2.12132 -2.12132 
C -2.683901 -1.55874 -3 -0.795609 -3 0 
C -3 0.795609 -2.683901 1.55874 -2.12132 2.12132 
C -1.55874 2.683901 -0.795609 3 0 3 
z
" id="m255e7c6466" style="stroke:#9467bd;"/>
     </defs>
     <g>
      <use style="fill:#9467bd;stroke:#9467bd;" x="213.4" xlink:href="#m255e7c6466" y="131.231562"/>
     </g>
    </g>
    <g id="text_18">
     <text style="font-family:DejaVu Sans;font-size:10px;font-stretch:normal;font-style:normal;font-weight:normal;text-anchor:start;" transform="rotate(-0, 231.4, 133.856562)" x="231.4" y="133.856562">Atf3</text>
    </g>
    <g id="PathCollection_14">
     <defs>
      <path d="M 0 3 
C 0.795609 3 1.55874 2.683901 2.12132 2.12132 
C 2.683901 1.55874 3 0.795609 3 0 
C 3 -0.795609 2.683901 -1.55874 2.12132 -2.12132 
C 1.55874 -2.683901 0.795609 -3 0 -3 
C -0.795609 -3 -1.55874 -2.683901 -2.12132 -2.12132 
C -2.683901 -1.55874 -3 -0.795609 -3 0 
C -3 0.795609 -2.683901 1.55874 -2.12132 2.12132 
C -1.55874 2.683901 -0.795609 3 0 3 
z
" id="m26a79f785c" style="stroke:#8c564b;"/>
     </defs>
     <g>
      <use style="fill:#8c564b;stroke:#8c564b;" x="213.4" xlink:href="#m26a79f785c" y="145.909687"/>
     </g>
    </g>
    <g id="text_19">
     <text style="font-family:DejaVu Sans;font-size:10px;font-stretch:normal;font-style:normal;font-weight:normal;text-anchor:start;" transform="rotate(-0, 231.4, 148.534687)" x="231.4" y="148.534687">Tnf</text>
    </g>
   </g>
  </g>
 </g>
 <defs>
  <clipPath id="p56bd899507">
   <rect height="166.32" width="167.4" x="27" y="25.92"/>
  </clipPath>
 </defs>
</svg>
